<?xml version="1.0" encoding="utf-8"?>
<!-- Generator: Adobe Illustrator 27.0.1, SVG Export Plug-In . SVG Version: 6.00 Build 0)  -->
<svg version="1.1" id="Layer_1" xmlns="http://www.w3.org/2000/svg" xmlns:xlink="http://www.w3.org/1999/xlink" x="0px" y="0px"
	 viewBox="0 0 2000 1600.9" style="enable-background:new 0 0 2000 1600.9;" xml:space="preserve">
<style type="text/css">
	.st0{fill:#FFFFFF;}
</style>
<g>
	<g>
		<path class="st0" d="M794.1,1319.1c0,44.9,26.3,61.3,69.4,61.3c61.8,0,96.3-26.3,96.3-72.3c0-32.1-22.2-47.8-60.7-47.8h-69.4
			C812.7,1265.4,794.1,1278.8,794.1,1319.1z"/>
	</g>
	<g>
		<path class="st0" d="M610.7,905.1c10.5,0,18.1-3.5,23.9-9.3c11.7-11.7,18.1-33.3,18.1-114.9c0-77-6.4-98.6-18.1-110.3
			c-5.8-5.8-13.4-9.3-23.9-9.3c-10.5,0-18.1,3.5-23.9,9.3c-11.7,11.7-18.1,33.3-18.1,110.3c0,81.7,6.4,103.3,18.1,114.9
			C592.6,901.6,600.2,905.1,610.7,905.1z"/>
	</g>
	<g>
		<path class="st0" d="M602.7,982.5c-5.8,0-11.1,1.7-15.7,6.4c-7.6,7.6-13.4,29.2-13.4,95.7h46.7c8.2,0,9.3-0.6,9.3-6.4
			c0-67.7-5.8-83.4-12.3-89.8C613.2,984.2,609.1,982.5,602.7,982.5z"/>
	</g>
	<g>
		<path class="st0" d="M315.5,807.1c6.4,0,12.8-1.7,18.1-7c8.2-8.2,9.9-29.2,9.9-65.9c0-36.8-1.7-58.3-9.9-66.5
			c-5.3-5.2-11.7-7-18.1-7c-6.4,0-13.4,1.7-18.7,7c-8.2,8.2-9.9,29.8-9.9,66.5c0,36.8,1.7,57.8,9.9,65.9
			C302.1,805.4,309.1,807.1,315.5,807.1z"/>
	</g>
	<g>
		<path class="st0" d="M1208.6,900.5c16.3,0,35-17.5,44.3-54.8V701.5c-12.8-25.1-28.6-35.6-44.3-35.6c-6.4,0-15.2,2.9-21,8.8
			c-12.8,12.8-18.7,30.3-18.7,106.2c0,80.5,5.2,98,18.1,110.8C1193.5,898.1,1201.1,900.5,1208.6,900.5z"/>
	</g>
	<g>
		<path class="st0" d="M911.1,905.1c10.5,0,18.1-3.5,23.9-9.3c11.7-11.7,18.1-33.3,18.1-114.9c0-77-6.4-98.6-18.1-110.3
			c-5.8-5.8-13.4-9.3-23.9-9.3c-10.5,0-18.1,3.5-23.9,9.3c-11.7,11.7-18.1,33.3-18.1,110.3c0,81.7,6.4,103.3,18.1,114.9
			C893,901.6,900.6,905.1,911.1,905.1z"/>
	</g>
	<g>
		<path class="st0" d="M351.1,938.4h-69.4c-16.9,5.3-35.6,18.7-35.6,58.9c0,44.9,26.3,61.3,69.4,61.3c61.8,0,96.3-26.3,96.3-72.3
			C411.8,954.1,389.6,938.4,351.1,938.4z"/>
	</g>
	<g>
		<path class="st0" d="M1089.2,1319.1c0,44.9,26.3,61.3,69.4,61.3c61.8,0,96.3-26.3,96.3-72.3c0-32.1-22.2-47.8-60.7-47.8h-69.4
			C1107.9,1265.4,1089.2,1278.8,1089.2,1319.1z"/>
	</g>
	<g>
		<path class="st0" d="M1158.7,982.5c-6.4,0-13.4,1.7-18.7,7c-8.2,8.2-9.9,29.8-9.9,66.5c0,36.8,1.8,57.8,9.9,65.9
			c5.3,5.2,12.3,7,18.7,7s12.8-1.7,18.1-7c8.2-8.2,9.9-29.2,9.9-65.9c0-36.8-1.8-58.3-9.9-66.5
			C1171.5,984.2,1165.1,982.5,1158.7,982.5z"/>
	</g>
	<g>
		<path class="st0" d="M863.5,982.5c-6.4,0-13.4,1.7-18.7,7c-8.2,8.2-9.9,29.8-9.9,66.5c0,36.8,1.8,57.8,9.9,65.9
			c5.3,5.2,12.3,7,18.7,7c6.4,0,12.8-1.7,18.1-7c8.2-8.2,9.9-29.2,9.9-65.9c0-36.8-1.8-58.3-9.9-66.5
			C876.3,984.2,869.9,982.5,863.5,982.5z"/>
	</g>
	<g>
		<path class="st0" d="M1649.1,227.1C1454,95.2,1205.3,17.2,967.4,2.6C726.6-12.3,474.9,35.4,282.5,189.3
			C91.3,342.3,0,571.2,0,800.5c0,229.3,91.3,458.2,282.6,611.2c192.4,153.9,444,201.5,684.7,186.7c238-14.6,486.8-92.6,682-224.6
			c197.2-133.4,350.8-329.4,350.8-573.3C2000,556.6,1846.4,360.5,1649.1,227.1z M1187.1,650.8c30.3,0,51.3,11.7,65.3,31.5l1.7-1.2
			c-1.2-9.3-1.7-33.8-1.7-44.9V489.7c0-8.8-1.2-9.9-9.9-9.9h-27.4c-2.3,0-3.5-0.6-3.5-5.2c0-4.7,1.2-5.3,3.5-5.3h120.8
			c8.8,0,9.9,1.2,9.9,9.9v409c0,8.8,1.2,9.9,9.9,9.9h26.8c2.3,0,3.5,0.6,3.5,5.2c0,4.7-1.2,5.3-3.5,5.3h-116.1
			c-8.8,0-9.9-1.2-9.9-9.9c0-7,1.2-22.8,1.7-32.1l-1.7-1.2c-13.4,35-35,50.2-70.6,50.2c-68.8,0-114.9-54.3-114.9-134.8
			C1071,704.4,1125.2,650.8,1187.1,650.8z M911.1,650.8c78.2,0,140,51.3,140,130.7c0,79.3-55.4,134.2-140,134.2s-140-54.8-140-134.2
			C771.1,702.1,832.9,650.8,911.1,650.8z M315.5,1069.1c-88.1,0-131.3-27.4-131.3-71.8c0-30.3,23.9-53.1,80.5-61.8v-2.3
			c-47.3-4.7-73.5-29.8-73.5-64.8c0-34.4,22.2-58.3,66.5-63l0.6-1.7c-29.2-10.5-49.6-36.2-49.6-69.4c0-49.6,44.3-83.4,106.8-83.4
			c30.9,0,57.2,8.2,75.8,22.8c8.8-22.2,25.7-35.6,50.2-35.6c28.6,0,45.5,17.5,45.5,37.3c0,18.7-14,32.7-29.2,32.7
			c-15.2,0-24.5-10.5-24.5-22.8c0-11.7,7.6-20.4,7.6-27.4c0-5.2-4.7-9.3-9.3-9.3c-15.2,0-26.3,10.5-33.3,31.5
			c14.6,14,23.3,32.7,23.3,54.3c0,49.6-43.8,82.8-106.2,82.8c-18.1,0-30.9-4.1-43.2-4.1c-33.3,0.6-49.6,10.5-49.6,25.7
			c0,12.3,8.2,17.5,26.8,17.5h112.6c61.3,0,104.4,30.3,104.4,91C466.6,1012.5,405.3,1069.1,315.5,1069.1z M610.7,650.8
			c78.2,0,140,51.3,140,130.7c0,79.3-55.4,134.2-140,134.2s-140-54.8-140-134.2C470.7,702.1,532.5,650.8,610.7,650.8z M712.4,1094.5
			H574.1v14c0,69.4,5.8,88.7,18.1,100.9c8.2,8.2,20.4,12.8,36.2,12.8c40.3,0,67.7-28.6,80.5-51.3c2.3-4.1,11.1,0.6,9.3,3.5
			c-20.4,37.3-53.1,63-112.6,63c-73.5,0-129.5-54.8-129.5-134.2c0-79.3,63-130.7,129.5-130.7s116.1,55.4,116.1,112.6
			C721.7,1092.7,719.4,1094.5,712.4,1094.5z M979.6,970.2c-15.2,0-26.3,10.5-33.3,31.5c14.6,14,23.3,32.7,23.3,54.3
			c0,49.6-43.8,82.8-106.2,82.8c-18.1,0-30.9-4.1-43.2-4.1c-33.3,0.6-49.6,10.5-49.6,25.7c0,12.3,8.2,17.5,26.8,17.5h112.6
			c61.3,0,104.4,30.3,104.4,91c0,65.3-61.3,121.9-151.1,121.9c-88.1,0-131.3-27.4-131.3-71.8c0-30.3,23.9-53.1,80.5-61.8v-2.3
			c-47.3-4.7-73.5-29.8-73.5-64.8c0-34.4,22.2-58.3,66.5-63l0.6-1.7c-29.2-10.5-49.6-36.2-49.6-69.4c0-49.6,44.3-83.4,106.8-83.4
			c30.9,0,57.2,8.2,75.8,22.8c8.7-22.2,25.7-35.6,50.2-35.6c28.6,0,45.5,17.5,45.5,37.3c0,18.7-14,32.7-29.2,32.7
			c-15.2,0-24.5-10.5-24.5-22.8c0-11.7,7.6-20.4,7.6-27.4C988.9,974.3,984.2,970.2,979.6,970.2z M1301,1029.7
			c-15.2,0-24.5-10.5-24.5-22.8c0-11.7,7.6-20.4,7.6-27.4c0-5.3-4.7-9.3-9.3-9.3c-15.2,0-26.3,10.5-33.3,31.5
			c14.6,14,23.3,32.7,23.3,54.3c0,49.6-43.8,82.8-106.2,82.8c-18.1,0-30.9-4.1-43.2-4.1c-33.3,0.6-49.6,10.5-49.6,25.7
			c0,12.3,8.2,17.5,26.8,17.5h112.6c61.3,0,104.4,30.3,104.4,91c0,65.3-61.3,121.9-151.1,121.9c-88.1,0-131.3-27.4-131.3-71.8
			c0-30.3,23.9-53.1,80.5-61.8v-2.3c-47.3-4.7-73.5-29.8-73.5-64.8c0-34.4,22.2-58.3,66.5-63l0.6-1.7
			c-29.2-10.5-49.6-36.2-49.6-69.4c0-49.6,44.3-83.4,106.8-83.4c30.9,0,57.2,8.2,75.8,22.8c8.7-22.2,25.7-35.6,50.2-35.6
			c28.6,0,45.5,17.5,45.5,37.3C1330.2,1015.7,1316.2,1029.7,1301,1029.7z M1431.7,1237.4c-37.9,0-56-12.3-69.4-12.3
			c-9.9,0-15.2,2.9-17.5,5.2c-2.9,2.9-3.5,3.5-6.4,3.5c-2.9,0-4.1-1.8-4.1-4.7v-86.9c0-1.7,1.8-3.5,5.3-3.5c3.5,0,4.7,1.8,5.3,3.5
			c9.3,36.8,32.1,84.6,82.3,84.6c29.2,0,46.7-11.1,46.7-36.2c0-18.1-12.8-33.3-40.3-43.2l-34.4-12.8c-44.9-16.9-59.5-45.5-59.5-77.6
			c0-44.3,35.6-84.6,93.9-84.6c34.4,0,46.7,11.7,62.4,11.7c5.8,0,9.9-1.7,11.7-4.7c1.7-2.3,3.5-3.5,6.4-3.5c2.9,0,4.1,1.7,4.1,4.7
			v68.3c0,1.8-1.8,2.9-5.3,2.9c-3.5,0-4.7-1.2-5.2-2.9c-5.8-33.3-24.5-65.9-72.9-65.9c-23.3,0-41.4,11.7-41.4,31.5
			c0,15.2,8.2,25.1,28,32.7l50.2,18.7c49,18.1,65.3,43.8,65.3,80.5C1536.7,1201.2,1498.8,1237.4,1431.7,1237.4z"/>
	</g>
</g>
</svg>
