<?xml version="1.0" encoding="utf-8"?>
<!-- Generator: Adobe Illustrator 27.0.1, SVG Export Plug-In . SVG Version: 6.00 Build 0)  -->
<svg version="1.1" id="Layer_1" xmlns="http://www.w3.org/2000/svg" xmlns:xlink="http://www.w3.org/1999/xlink" x="0px" y="0px"
	 viewBox="0 0 2000 1600.9" style="enable-background:new 0 0 2000 1600.9;" xml:space="preserve">
<style type="text/css">
	.st0{fill:#FFFFFF;}
</style>
<g>
	<path class="st0" d="M1649.1,227.6C1454.1,95.6,1205.3,17.7,967.4,3.1C726.6-11.8,474.9,35.9,282.5,189.8C91.3,342.8,0,571.7,0,801
		c0,229.3,91.3,458.2,282.6,611.2c99,79.2,213.7,130,334.5,158.9c-61.6-37.1-92.4-89.7-92.4-154.3c0-91.2,71.9-159.7,242.1-186v-7
		c-142.1-14-221.1-89.5-221.1-194.7c0-103.5,66.7-175.5,200-189.5l1.7-5.3c-87.7-31.6-149.1-108.8-149.1-208.8
		c0-149.1,133.3-250.9,321.1-250.9c93,0,171.9,24.6,228.1,68.4c26.3-66.7,77.2-107,150.9-107c86,0,136.8,52.6,136.8,112.3
		c0,56.2-42.1,98.2-87.7,98.2c-45.6,0-73.7-31.6-73.7-68.4c0-35.1,22.8-61.4,22.8-82.5c0-15.8-14-28.1-28.1-28.1
		c-45.6,0-78.9,31.6-100,94.7c43.9,42.1,70.2,98.2,70.2,163.2c0,149.1-131.6,249.1-319.3,249.1c-54.4,0-93-12.3-129.8-12.3
		c-100,1.7-149.1,31.6-149.1,77.2c0,36.8,24.6,52.6,80.7,52.6h338.6c184.2,0,314,91.2,314,273.7c0,123.4-72.8,236.4-193.8,303.4
		c168-36.1,332-102.1,469.3-195C1846.4,1240.9,2000,1044.8,2000,801C2000,557,1846.4,361,1649.1,227.6z"/>
	<path class="st0" d="M1026.3,1239.6H817.6c-50.9,15.8-107,56.1-107,177.2c0,134.7,78.5,183.9,207.6,184.2c1.2,0,2.5,0,3.7,0
		c0.1,0,0.2,0,0.3,0c14.9-0.4,29.7-1.1,44.5-2c155.9-12.7,242.1-89.2,242.1-215.5C1208.8,1286.9,1142.1,1239.6,1026.3,1239.6z"/>
	<path class="st0" d="M973.7,823.8c24.6-24.6,29.8-87.7,29.8-198.2s-5.3-175.5-29.8-200c-15.8-15.8-35.1-21.1-54.4-21.1
		s-40.4,5.3-56.1,21.1c-24.6,24.6-29.8,89.5-29.8,200s5.3,173.7,29.8,198.2c15.8,15.8,36.8,21.1,56.1,21.1S957.9,839.6,973.7,823.8z
		"/>
</g>
</svg>
